<?xml version="1.0" encoding="UTF-8"?>
<svg width="7px" height="10px" viewBox="0 0 7 10" version="1.1" xmlns="http://www.w3.org/2000/svg" xmlns:xlink="http://www.w3.org/1999/xlink">
    <!-- Generator: Sketch 52.4 (67378) - http://www.bohemiancoding.com/sketch -->
    <title>$</title>
    <desc>Created with Sketch.</desc>
    <g id="Symbols" stroke="none" stroke-width="1" fill="none" fill-rule="evenodd">
        <g id="Calendar/All_OneDay-Duble" transform="translate(-7.000000, -40.000000)">
            <g id="$" transform="translate(7.000000, 40.000000)">
                <g id="Group-15">
                    <path d="M3.46575342,10 L3.46575342,9.18986083 C1.90562386,9.14347227 1.08371427,8.30683385 1,6.67992048 L2.50684932,6.40656064 C2.54109606,7.496692 2.89877894,8.0417495 3.57990868,8.0417495 C3.84246707,8.0417495 4.03652905,7.97216769 4.16210046,7.83300199 C4.28767186,7.69383628 4.35045662,7.50662808 4.35045662,7.27137177 C4.35045662,7.0957579 4.3276258,6.93671377 4.28196347,6.79423459 C4.23630114,6.65175542 4.16305225,6.51756193 4.06221461,6.3916501 C3.96137697,6.26573827 3.85958955,6.15639543 3.75684932,6.06361829 C3.65410908,5.97084115 3.51522158,5.85818489 3.34018265,5.72564612 L2.10159817,4.78628231 C1.73629954,4.50795089 1.46423225,4.21885504 1.28538813,3.91898608 C1.10654401,3.61911712 1.01712329,3.24387237 1.01712329,2.79324056 C1.01712329,2.18356223 1.21784426,1.70228805 1.61929224,1.34940358 C2.02074021,0.99651911 2.56963122,0.801855716 3.26598174,0.765407555 L3.26598174,0 L3.76255708,0 L3.76255708,0.765407555 C4.1354661,0.788601839 4.45414632,0.862325422 4.71860731,0.986580517 C4.98306829,1.11083561 5.19139954,1.27899165 5.34360731,1.49105368 C5.49581507,1.70311571 5.60901789,1.92842823 5.68321918,2.16699801 C5.75742046,2.40556779 5.80783853,2.6789249 5.83447489,2.98707753 L4.35616438,3.24055666 C4.348554,3.0748832 4.3361873,2.93074945 4.31906393,2.80815109 C4.30194055,2.68555273 4.27245074,2.5612995 4.23059361,2.43538767 C4.18873647,2.30947584 4.13546455,2.2075882 4.07077626,2.12972167 C4.00608796,2.05185514 3.91856981,1.98972853 3.80821918,1.94333996 C3.69786855,1.89695139 3.56659132,1.87872758 3.41438356,1.88866799 C3.15943556,1.90192187 2.96442229,1.97564545 2.8293379,2.10984095 C2.69425351,2.24403646 2.62671233,2.42378946 2.62671233,2.64910537 C2.62671233,2.9141829 2.68569195,3.13121188 2.80365297,3.30019881 C2.92161398,3.46918574 3.1080657,3.65308052 3.3630137,3.85188867 L4.59589041,4.78628231 C4.80137089,4.9486423 4.98116361,5.10602972 5.13527397,5.2584493 C5.28938433,5.41086889 5.43588211,5.58482341 5.57477169,5.78031809 C5.71366127,5.97581277 5.81925382,6.19118504 5.89155251,6.42644135 C5.9638512,6.66169766 6,6.91020413 6,7.17196819 C6,7.72200408 5.81354829,8.17925596 5.44063927,8.54373757 C5.06773025,8.90821918 4.57115987,9.12027803 3.95091324,9.17992048 L3.95091324,10 L3.46575342,10 Z" id="$" fill="#D0021B"></path>
                    <rect id="Rectangle" fill="#D10023" fill-rule="nonzero" x="0" y="4" width="7" height="1"></rect>
                </g>
            </g>
        </g>
    </g>
</svg>