
<svg width="11px" height="13px" viewBox="0 0 11 13" version="1.1" xmlns="http://www.w3.org/2000/svg" xmlns:xlink="http://www.w3.org/1999/xlink">
    <defs>
        <polygon id="path-1" points="0 0.00480821918 10.9999766 0.00480821918 10.9999766 1.46022055 0 1.46022055"></polygon>
    </defs>
    <g id="Page-1" stroke="none" stroke-width="1" fill="none" fill-rule="evenodd">
        <g id="Archive-1280x700" transform="translate(-1094.000000, -713.000000)">
            <g id="Group-14" transform="translate(1094.000000, 713.000000)">
                <path d="M9.53107582,3.95413699 C9.53107582,3.84201644 9.62283235,3.75105205 9.73599575,3.75105205 C9.84915915,3.75105205 9.94100556,3.84242603 9.94100556,3.95413699 L9.94100556,11.7448055 C9.94100556,12.0887534 9.79836503,12.4018575 9.56948595,12.629037 C9.34060686,12.8558068 9.02417712,12.9971151 8.67701209,12.9971151 L2.32300229,12.9971151 C1.97583725,12.9971151 1.65897614,12.8558068 1.43051046,12.629037 C1.20164935,12.4022671 1.0590268,12.0892164 1.0590268,11.7448055 L1.0590268,3.95413699 C1.0590268,3.84201644 1.15081928,3.75105205 1.26398268,3.75105205 C1.37714608,3.75105205 1.46895654,3.84242603 1.46895654,3.95413699 L1.46895654,11.7448055 C1.46895654,11.9766685 1.56547614,12.1886219 1.72005131,12.3417548 C1.8746085,12.4949233 2.08856928,12.5909452 2.32257092,12.5909452 L8.67663464,12.5909452 C8.9106183,12.5909452 9.12409379,12.4948877 9.27872288,12.3417548 C9.43372941,12.1881767 9.5301951,11.9766329 9.5301951,11.7452151 L9.5301951,3.95413699 L9.53107582,3.95413699 Z" id="Fill-1" fill="#000000"></path>
                <path d="M4.06132549,11.22017 C4.06132549,11.3323084 3.94934724,11.4232371 3.81132549,11.4232371 C3.67330374,11.4232371 3.56132549,11.3323084 3.56132549,11.22017 L3.56132549,4.00659466 C3.56132549,3.89447411 3.67330374,3.80350973 3.81132549,3.80350973 C3.94934724,3.80350973 4.06132549,3.89447411 4.06132549,4.00659466 L4.06132549,11.22017 Z" id="Fill-3" fill="#000000"></path>
                <path d="M5.79504771,11.22017 C5.79504771,11.3323084 5.68308647,11.4232371 5.54505867,11.4232371 C5.40703088,11.4232371 5.29504771,11.3323084 5.29504771,11.22017 L5.29504771,4.00659466 C5.29504771,3.89447411 5.40703088,3.80350973 5.54505867,3.80350973 C5.68308647,3.80350973 5.79504771,3.89447411 5.79504771,4.00659466 L5.79504771,11.22017 Z" id="Fill-5" fill="#000000"></path>
                <path d="M7.52917435,11.22017 C7.52917435,11.3323084 7.41725205,11.4232371 7.27921819,11.4232371 C7.1411405,11.4232371 7.02917435,11.3323084 7.02917435,11.22017 L7.02917435,4.00659466 C7.02917435,3.89447411 7.1411405,3.80350973 7.27921819,3.80350973 C7.41725205,3.80350973 7.52917435,3.89447411 7.52917435,4.00659466 L7.52917435,11.22017 Z" id="Fill-7" fill="#000000"></path>
                <path d="M3.85170572,1.25233096 C3.85170572,1.36445151 3.75989526,1.45541589 3.64673186,1.45541589 C3.53358644,1.45541589 3.44177598,1.36445151 3.44177598,1.25233096 C3.44177598,0.907510411 3.58396716,0.594441918 3.81286422,0.367672055 C4.0417433,0.140884384 4.35774167,3.56164383e-06 4.70575147,3.56164383e-06 L6.29428088,3.56164383e-06 C6.64185931,3.56164383e-06 6.95785768,0.141311781 7.18670082,0.368081644 C7.4155799,0.594851507 7.55822042,0.908774795 7.55822042,1.25233096 C7.55822042,1.36445151 7.46642794,1.45541589 7.35326454,1.45541589 C7.24011912,1.45541589 7.14830866,1.36445151 7.14830866,1.25233096 C7.14830866,1.02048575 7.05180703,0.808514521 6.89721389,0.655363836 C6.74260278,0.502195342 6.52869592,0.406155616 6.29469428,0.406155616 L4.70620082,0.406155616 C4.47176781,0.406155616 4.25825637,0.501767945 4.10324984,0.654936438 C3.94820735,0.808514521 3.85170572,1.02005836 3.85170572,1.25233096" id="Fill-9" fill="#000000"></path>
                <g id="Group-13" transform="translate(0.000000, 1.831362)">
                    <mask id="mask-2" fill="white">
                        <use xlink:href="#path-1"></use>
                    </mask>
                    <g id="Clip-12"></g>
                    <path d="M10.2655289,0.410978082 L0.734478268,0.410978082 C0.645220098,0.410978082 0.563654739,0.446950685 0.505581209,0.50489863 L0.504718464,0.505753425 C0.446213562,0.563273973 0.409924346,0.643678082 0.409924346,0.732523288 L0.409924346,1.05406849 L10.5896155,1.05406849 L10.5896155,0.732523288 C10.5896155,0.644105479 10.5533263,0.563291781 10.4948574,0.505753425 L10.4939587,0.50489863 C10.4359211,0.446950685 10.3547871,0.410978082 10.2655289,0.410978082 M0.734478268,0.00480821918 L10.2655109,0.00480821918 C10.4666204,0.00480821918 10.6502413,0.0864589041 10.7834815,0.218471233 L10.7843263,0.219326027 C10.9175665,0.351320548 10.9999766,0.533249315 10.9999766,0.732523288 L10.9999766,1.25715342 C10.9999766,1.36925616 10.9081662,1.46022055 10.7950028,1.46022055 L10.7894489,1.46022055 L0.204986438,1.46022055 C0.0918050654,1.46022055 -5.39215686e-06,1.36925616 -5.39215686e-06,1.25715342 L-5.39215686e-06,1.25207808 L-5.39215686e-06,0.732523288 C-5.39215686e-06,0.533676712 0.0824047386,0.351320548 0.215644935,0.219326027 L0.21650768,0.218471233 C0.349729902,0.0864767123 0.53378219,0.00480821918 0.734478268,0.00480821918" id="Fill-11" fill="#000000" mask="url(#mask-2)"></path>
                </g>
            </g>
        </g>
    </g>
</svg>