
<svg width="13px" height="13px" viewBox="0 0 13 13" version="1.1" xmlns="http://www.w3.org/2000/svg" xmlns:xlink="http://www.w3.org/1999/xlink">
    <defs>
        <polygon id="path-1" points="0 0 10.4836885 0 10.4836885 13 0 13"></polygon>
        <polygon id="path-3" points="0.00772646465 0.0161214074 10.7725616 0.0161214074 10.7725616 8.88469646 0.00772646465 8.88469646"></polygon>
    </defs>
    <g id="Page-1" stroke="none" stroke-width="1" fill="none" fill-rule="evenodd">
        <g id="Archive-1280x700" transform="translate(-993.000000, -623.000000)">
            <g id="Group-7" transform="translate(993.000000, 623.000000)">
                <g id="Group-3">
                    <mask id="mask-2" fill="white">
                        <use xlink:href="#path-1"></use>
                    </mask>
                    <g id="Clip-2"></g>
                    <path d="M2.57577535,2.61985827 L0.928951111,2.61985827 L2.68870465,0.905061024 L2.68870465,2.50979331 C2.68870465,2.57049409 2.63804404,2.61985827 2.57577535,2.61985827 Z M2.9606804,0 C2.88809051,0 2.81975515,0.0275866142 2.76830667,0.0776673228 L0.079670303,2.69747441 C0.0290359596,2.74681299 -1.05050505e-05,2.81513976 -1.05050505e-05,2.88489961 L-1.05050505e-05,12.3595197 C1.57575758e-05,12.7126693 0.294892525,13 0.657290505,13 L9.82672889,13 C10.1889693,13 10.4836622,12.7126693 10.4836622,12.3595453 L10.4836622,7.53101772 C10.4836622,7.46020866 10.4553774,7.39367323 10.4040077,7.34359252 C10.352638,7.29351181 10.2843289,7.26595079 10.2116602,7.26595079 C10.0616743,7.26595079 9.93963192,7.38484449 9.93963192,7.53101772 L9.93963192,12.3595453 C9.93963192,12.420374 9.88899758,12.4698661 9.82678141,12.4698661 L0.657316768,12.4698661 C0.594890505,12.4698661 0.544098586,12.420374 0.544098586,12.3595453 L0.544098586,3.15001772 L2.57577535,3.15001772 C2.93804202,3.15001772 3.23276121,2.86284055 3.23276121,2.5098189 L3.23276121,0.530133858 L9.82675515,0.530133858 C9.88897131,0.530133858 9.93960566,0.579625984 9.93960566,0.640454724 L9.93960566,1.63830709 C9.93960566,1.78445472 10.0616743,1.90337402 10.2116602,1.90337402 C10.3616461,1.90337402 10.4836885,1.78445472 10.4836885,1.63830709 L10.4836885,0.640454724 C10.4836885,0.287305118 10.1889956,0 9.82675515,0 L2.9606804,0 Z" id="Fill-1" fill="#000000" mask="url(#mask-2)"></path>
                </g>
                <g id="Group-6" transform="translate(2.206061, 1.868110)">
                    <mask id="mask-4" fill="white">
                        <use xlink:href="#path-3"></use>
                    </mask>
                    <g id="Clip-5"></g>
                    <path d="M9.63599919,2.18680472 L8.54476081,1.12349173 L8.99085778,0.68883622 C9.08545576,0.596659055 9.21143758,0.545887402 9.34553455,0.545887402 C9.47968404,0.545887402 9.60561333,0.596659055 9.70015879,0.68883622 L10.0820436,1.06094843 C10.1766679,1.15312559 10.2287467,1.27588346 10.2287467,1.40654882 C10.2287467,1.53723976 10.1766679,1.65997205 10.0820436,1.75214921 L9.63599919,2.18680472 Z M3.98622545,7.69199764 L2.89501333,6.62876142 L8.16006586,1.49844449 L9.25127798,2.5617063 L3.98622545,7.69199764 Z M2.33378101,8.23879094 L2.64764566,7.13745039 L3.46409818,7.93298386 L2.33378101,8.23879094 Z M0.279754747,8.35453701 C0.129742626,8.35453701 0.00772646465,8.4734563 0.00772646465,8.61962953 C0.00772646465,8.76577717 0.129742626,8.88469646 0.279754747,8.88469646 L1.94005172,8.88469646 C1.96271636,8.88218858 2.00439515,8.87722402 2.01243152,8.87558622 C2.01970626,8.87359016 4.05897293,8.32221614 4.05897293,8.32221614 C4.10406586,8.31003504 4.14542949,8.28654291 4.17854667,8.25424764 L10.4668436,2.12699961 C10.8744921,1.72975748 10.8744659,1.08336575 10.4668174,0.686072441 L10.0849325,0.314011417 C9.67725778,-0.083153937 9.0138901,-0.0832051181 8.60605778,0.314037008 L5.55935677,3.28274567 L0.279754747,3.28274567 C0.129742626,3.28274567 0.00772646465,3.40166496 0.00772646465,3.54783819 C0.00772646465,3.69398583 0.129742626,3.81287953 0.279754747,3.81287953 L5.01532646,3.81287953 L2.95688808,5.81864134 L0.279754747,5.81864134 C0.129742626,5.81864134 0.00772646465,5.93756063 0.00772646465,6.08373386 C0.00772646465,6.2298815 0.129742626,6.3487752 0.279754747,6.3487752 L2.41280525,6.3487752 L2.31791838,6.44123386 C2.28482747,6.47347795 2.26069212,6.51378307 2.24813859,6.55777323 L1.73617495,8.35453701 L0.279754747,8.35453701 Z" id="Fill-4" fill="#000000" mask="url(#mask-4)"></path>
                </g>
            </g>
        </g>
    </g>
</svg>