
<svg width="19px" height="10px" viewBox="0 0 19 10" version="1.1" xmlns="http://www.w3.org/2000/svg" xmlns:xlink="http://www.w3.org/1999/xlink">
    <defs>
        <polygon id="path-1" points="8.77598152e-06 0.0186206897 18.9568222 0.0186206897 18.9568222 9.95689655 8.77598152e-06 9.95689655"></polygon>
    </defs>
    <g id="Page-1" stroke="none" stroke-width="1" fill="none" fill-rule="evenodd">
        <g id="Archive-1280x700" transform="translate(-906.000000, -506.000000)">
            <g id="Group-8" transform="translate(906.000000, 506.000000)">
                <g id="Group-3" transform="translate(0.000000, 0.024483)">
                    <mask id="mask-2" fill="white">
                        <use xlink:href="#path-1"></use>
                    </mask>
                    <g id="Clip-2"></g>
                    <path d="M9.47841986,9.31034483 C6.96453995,9.31034483 4.68844527,8.08823276 3.22171547,7.06301724 C2.13687252,6.30474138 1.31644988,5.53189655 0.923944111,5.1387069 L0.773304388,4.98784483 L0.923944111,4.83689655 C1.31653764,4.44366379 2.1371358,3.67073276 3.22171547,2.91262931 C4.68835751,1.88741379 6.96445219,0.665258621 9.47841986,0.665258621 C11.9924753,0.665258621 14.2684822,1.88741379 15.7350804,2.91262931 C16.8197917,3.67086207 17.6403021,4.4437069 18.0328956,4.83689655 L18.1836231,4.98780172 L18.0328956,5.13875 C17.6400827,5.53215517 16.8192212,6.30525862 15.7350804,7.06301724 C14.2684383,8.08823276 11.9923875,9.31034483 9.47841986,9.31034483 M9.47841986,0.0186206897 C7.34339908,0.0186206897 5.04001109,0.842672414 2.81723048,2.40172414 C1.14909192,3.57189655 0.122653118,4.7275431 0.079782448,4.77616379 C-0.026582448,4.89676724 -0.026582448,5.07875 0.079782448,5.19939655 C0.122609238,5.24797414 1.14733672,6.40237069 2.81723048,7.57375 C5.03970393,9.13280172 7.34309192,9.95689655 9.47841986,9.95689655 C11.6137039,9.95689655 13.9170919,9.13280172 16.1396092,7.57375 C17.8043252,6.40607759 18.8340988,5.24801724 18.877145,5.19926724 C18.9834222,5.0787069 18.9833783,4.89672414 18.8770573,4.77607759 C18.8342305,4.7275 17.8098102,3.57331897 16.1396092,2.40172414 C13.9170042,0.842672414 11.6135723,0.0186206897 9.47841986,0.0186206897" id="Fill-1" fill="#000000" mask="url(#mask-2)"></path>
                </g>
                <path d="M9.47841986,1.88729741 C7.72423279,1.88729741 6.29712656,3.28915086 6.29712656,5.01229741 C6.29712656,6.73540086 7.72423279,8.13729741 9.47841986,8.13729741 C10.3267501,8.13729741 11.1252328,7.81186638 11.7268702,7.2209181 C12.3284199,6.62996983 12.6597132,5.84561638 12.6596693,5.01229741 C12.6596693,4.83402155 12.5120134,4.68902155 12.33057,4.68902155 C12.1490827,4.68902155 12.0014707,4.83402155 12.0014707,5.01229741 C12.0014707,6.37893534 10.8696323,7.49074569 9.47837598,7.49074569 C8.08711963,7.49074569 6.95528129,6.37893534 6.95528129,5.01229741 C6.95528129,3.64565948 8.08711963,2.53384914 9.47837598,2.53384914 C10.0903691,2.53384914 10.6805099,2.75169397 11.1401958,3.14729741 C11.2061035,3.20402155 11.2910988,3.23225431 11.378727,3.22647845 C11.4665746,3.22078879 11.5467871,3.18195259 11.6046208,3.117125 C11.7241497,2.98307328 11.7103714,2.7784181 11.5738171,2.66096121 C10.9941196,2.1620819 10.2499603,1.88729741 9.47841986,1.88729741" id="Fill-4" fill="#000000"></path>
                <path d="M9.47841986,6.04675862 C8.89771316,6.04675862 8.42530208,5.58266379 8.42530208,5.01227586 C8.42530208,4.44188793 8.89771316,3.9777931 9.47841986,3.9777931 C10.0590827,3.9777931 10.5315376,4.44188793 10.5315376,5.01227586 C10.5315376,5.58266379 10.0590827,6.04675862 9.47841986,6.04675862" id="Fill-6" fill="#000000"></path>
            </g>
        </g>
    </g>
</svg>