<?xml version="1.0" encoding="UTF-8"?>
<svg width="43px" height="27px" viewBox="0 0 43 27" version="1.1" xmlns="http://www.w3.org/2000/svg" xmlns:xlink="http://www.w3.org/1999/xlink">
    <!-- Generator: Sketch 46.2 (44496) - http://www.bohemiancoding.com/sketch -->
    <title>Arrows right</title>
    <desc>Created with Sketch.</desc>
    <defs></defs>
    <g id="Page-1" stroke="none" stroke-width="1" fill="none" fill-rule="evenodd">
        <g id="Calendar-1280x700" transform="translate(-1057.000000, -376.000000)" stroke="#EA5E68" fill="#EA5E68">
            <g id="Arrows-right" transform="translate(1046.000000, 377.000000)">
                <path d="M32.4094158,4.25812928 L49.1922075,4.25812928 L49.1922075,3.55211504 L32.2020702,3.55211504 L32.2020702,3.75890183 L31.7014935,3.75890183 L31.7014935,21.4092579 L32.4094158,21.4092579 L32.4094158,4.25812928 Z" id="Rectangle-43-copy" transform="translate(40.446850, 12.480686) scale(-1, 1) rotate(-45.000000) translate(-40.446850, -12.480686) "></path>
                <path d="M18.4431996,4.25812928 L35.2259913,4.25812928 L35.2259913,3.55211504 L18.235854,3.55211504 L18.235854,3.75890183 L17.7352772,3.75890183 L17.7352772,21.4092579 L18.4431996,21.4092579 L18.4431996,4.25812928 Z" id="Rectangle-43-copy-2" transform="translate(26.480634, 12.480686) scale(-1, 1) rotate(-45.000000) translate(-26.480634, -12.480686) "></path>
                <path d="M4.47698341,4.25812928 L21.2597751,4.25812928 L21.2597751,3.55211504 L4.26963774,3.55211504 L4.26963774,3.75890183 L3.76906102,3.75890183 L3.76906102,21.4092579 L4.47698341,21.4092579 L4.47698341,4.25812928 Z" id="Rectangle-43-copy-3" transform="translate(12.514418, 12.480686) scale(-1, 1) rotate(-45.000000) translate(-12.514418, -12.480686) "></path>
            </g>
        </g>
    </g>
</svg>