<?xml version="1.0" encoding="UTF-8"?>
<svg width="43px" height="27px" viewBox="0 0 43 27" version="1.1" xmlns="http://www.w3.org/2000/svg" xmlns:xlink="http://www.w3.org/1999/xlink">
    <!-- Generator: Sketch 46.2 (44496) - http://www.bohemiancoding.com/sketch -->
    <title>Arrows left</title>
    <desc>Created with Sketch.</desc>
    <defs></defs>
    <g id="Page-1" stroke="none" stroke-width="1" fill="none" fill-rule="evenodd">
        <g id="Calendar-1280x700" transform="translate(-438.000000, -376.000000)" stroke="#EA5E68" fill="#EA5E68">
            <g id="Arrows-left" transform="translate(438.000000, 377.000000)">
                <path d="M33.1116624,4.25812928 L49.9831178,4.25812928 L49.9831178,3.55211504 L32.9032213,3.55211504 L32.9032213,3.75890183 L32.4,3.75890183 L32.4,21.4092579 L33.1116624,21.4092579 L33.1116624,4.25812928 Z" id="Rectangle-43-copy-4" transform="translate(41.191559, 12.480686) scale(-1, 1) rotate(-225.000000) translate(-41.191559, -12.480686) "></path>
                <path d="M19.0716624,4.25812928 L35.9431178,4.25812928 L35.9431178,3.55211504 L18.8632213,3.55211504 L18.8632213,3.75890183 L18.36,3.75890183 L18.36,21.4092579 L19.0716624,21.4092579 L19.0716624,4.25812928 Z" id="Rectangle-43-copy-5" transform="translate(27.151559, 12.480686) scale(-1, 1) rotate(-225.000000) translate(-27.151559, -12.480686) "></path>
                <path d="M5.03166236,4.25812928 L21.9031178,4.25812928 L21.9031178,3.55211504 L4.82322128,3.55211504 L4.82322128,3.75890183 L4.32,3.75890183 L4.32,21.4092579 L5.03166236,21.4092579 L5.03166236,4.25812928 Z" id="Rectangle-43-copy-6" transform="translate(13.111559, 12.480686) scale(-1, 1) rotate(-225.000000) translate(-13.111559, -12.480686) "></path>
            </g>
        </g>
    </g>
</svg>