<?xml version="1.0" encoding="utf-8"?>
<!-- Generator: Adobe Illustrator 21.0.0, SVG Export Plug-In . SVG Version: 6.00 Build 0)  -->
<svg version="1.1" id="Layer_1" xmlns="http://www.w3.org/2000/svg" xmlns:xlink="http://www.w3.org/1999/xlink" x="0px" y="0px"
	 viewBox="0 0 224.4 93.5" style="enable-background:new 0 0 224.4 93.5;" xml:space="preserve">
<style type="text/css">
	.st0{fill:#FFFFFF;}
</style>
<g>
	<path class="st0" d="M224.2,55.2c-1-1.4-4.7-2.4-10.7-3.9c-3.5-0.9-8.7-2.2-9.4-3.1c-0.2-0.2-0.4-0.4-0.7-0.4c-0.3,0-0.5,0-0.7,0.2
		c-1.1,0.8-2.1,1.7-3,2.6c-1.7,1.5-3.3,3-4.7,3c-7.7,0.4-15.5,0.2-23.1,0c-2.3-0.1-4.6-0.1-6.9-0.2c0,0,0,0,0-0.1l2.6-2.2
		c0.4-0.4,0.5-1,0.1-1.4l-2.1-2.6l25-13.1c0.3-0.1,0.5-0.4,0.5-0.7c0.1-0.3,0-0.6-0.3-0.9l-5.6-6c-0.3-0.3-0.7-0.4-1-0.3
		c-0.4,0.1-0.6,0.4-0.7,0.8l-0.1,0.8c-0.8,0.2-1.5,0.4-2.3,0.6c-2.1,0.6-4.1,1.1-6.1,1.1c-10.3,0.1-20.7,0.1-30.8,0.1
		c-4.7,0-9.4,0-14.1,0c-0.9,0-1.8,0.1-2.6,0.2c-0.4,0.1-0.8,0.1-1.1,0.1c-0.5,0.1-0.9,0.5-0.9,1l0,1.5c0,0.6,0.5,1,1,1h50.9
		c-0.9,0.8-1.8,1.5-2.6,2.2c-3.1,2.7-5.8,5-8.3,7.4c-2.7,2.6-4.5,3.4-7.4,0.8c-0.3-0.3-0.7-0.3-1.1-0.2c-0.4,0.2-0.6,0.5-0.6,0.9
		l0,1.5l0,1.7c0,3,0,4.8-0.6,5.4c-0.6,0.6-2.5,0.6-5.6,0.6c-5.2,0-10.5,0-15.7,0c-6.1,0-12.2,0-18.3,0c-1.2,0-2.4,0.1-3.5,0.2
		c-0.5,0-1.1,0.1-1.6,0.1c-0.5,0-1,0.5-0.9,1l0,1.5c0,0.5,0.4,1,0.9,1c0.4,0,0.7,0.1,1.1,0.1c0.8,0.1,1.6,0.1,2.5,0.1
		c2.9-0.1,5.7-0.1,8.6-0.2c9.5-0.2,19.2-0.4,28.9-0.7c2-0.1,3.1,0.2,3.8,0.8c0.6,0.6,0.8,1.7,0.7,3.4c-0.3,5.6-0.3,11.3,0,17.1
		c0.1,1.7-0.2,2.9-0.8,3.5c-0.6,0.6-1.8,0.9-3.7,0.8c-2.9-0.2-5.7-0.1-8.3-0.1c-1,0-2,0-3,0c-0.4,0-0.8,0.3-1,0.7
		c-0.1,0.4,0.1,0.9,0.4,1.1l14.7,8.9c0.2,0.1,0.3,0.1,0.5,0.1c0.1,0,0.2,0,0.4-0.1c6.2-2.5,7.8-4.9,7.9-12.6c0-4,0-8.1,0-12.1
		c0-2,0-4,0-5.9c0-2.8,0-4.6,0.6-5.1c0.6-0.6,2.4-0.6,5.3-0.6l10.9,0c7.9,0,15.7,0,23.6,0c1.1,0,17.8-0.2,18.5-0.3
		c0.4,0,0.7-0.3,0.8-0.6C224.5,55.8,224.4,55.5,224.2,55.2z"/>
	<path class="st0" d="M117.2,27.3c1.3,0.7,3,1.6,4.7,1.6c0.7,0,1.3-0.1,1.9-0.4c2.4-1.2,3.8-4.6,4.7-11.6h64.9l-4.2,9.1
		c-0.2,0.4-0.1,0.9,0.3,1.2c0.4,0.3,0.9,0.3,1.2,0l14.7-11.1c0.2-0.2,0.4-0.5,0.4-0.8c0-0.3-0.1-0.6-0.3-0.8l-6.1-5.6
		c-0.3-0.3-0.9-0.4-1.3-0.1c-0.7,0.5-1.4,1.1-2,1.7c-1,0.9-1.9,1.7-2.6,1.8c-7,0.2-14.2,0.2-21.1,0.2c-2,0-4,0-6,0
		c0.7-3.3,0.4-5.9-0.9-7.8c-1.6-2.4-4.8-3.9-9.8-4.6c-0.4-0.1-0.7,0.1-1,0.4c-0.2,0.3-0.2,0.7-0.1,1l5.8,11.1c-2.4,0-4.8,0-7.1,0
		c-7.3,0-14.2,0-21-0.1c-1.4,0-2.8-0.6-4.1-1.2c-0.6-0.3-1.3-0.5-1.9-0.7c-0.5-0.1-0.9,0-1.2,0.5l-8.4,14.9
		C116.5,26.4,116.7,27,117.2,27.3z"/>
	<path class="st0" d="M100.7,83.7c-15.1-6.4-25-17.2-30.4-32.9c-5.1-15-9.2-28.7-6.9-44.1c0.1-0.5-0.2-1-0.7-1.1l-5.3-1.5
		c-0.3-0.1-0.7,0-0.9,0.2c-0.3,0.2-0.4,0.5-0.4,0.9c3.1,33.4,7.7,62.7,33.1,84c0.2,0.2,0.4,0.2,0.6,0.2c0.2,0,0.3,0,0.5-0.1
		c0.5-0.3,1-0.6,1.4-0.8c0.9-0.6,1.7-1.1,2.6-1.4c0.9-0.3,1.9-0.5,3.4-0.8c0.8-0.2,1.7-0.3,2.8-0.6c0.4-0.1,0.7-0.5,0.8-0.9
		C101.3,84.3,101.1,83.9,100.7,83.7z"/>
	<path class="st0" d="M41.5,11.3l-7.6-2.9c-0.3-0.1-0.6-0.1-0.9,0.1c-0.3,0.2-0.4,0.5-0.4,0.8c-0.8,27.8-5.3,59.4-32.2,82.5
		c-0.4,0.3-0.5,0.9-0.2,1.4c0.2,0.3,0.5,0.4,0.8,0.4c0.2,0,0.4-0.1,0.5-0.2c18.3-11.7,30-28.6,34.6-50.1c1.5-6.9,2.8-13.7,4.1-21
		c0.6-3.3,1.2-6.6,1.9-9.9C42.2,11.9,42,11.4,41.5,11.3z"/>
</g>
</svg>
