<?xml version="1.0" encoding="utf-8"?>
<!-- Generator: Adobe Illustrator 21.0.0, SVG Export Plug-In . SVG Version: 6.00 Build 0)  -->
<svg version="1.1" id="Layer_1" xmlns="http://www.w3.org/2000/svg" xmlns:xlink="http://www.w3.org/1999/xlink" x="0px" y="0px"
	 viewBox="0 0 276.5 274.4" style="enable-background:new 0 0 276.5 274.4;" xml:space="preserve">
<style type="text/css">
	.st0{fill:#FFFFFF;}
</style>
<g>
	<path class="st0" d="M245.4,63.8H74.7c-16.3,0-27.9,13.1-27.9,29.1v111.2c0,16.5,11.6,29.9,27.9,29.9H96l-0.8,31.7
		c-0.1,3.2,1.7,6.2,4.5,7.7c1.3,0.7,2.6,1,4,1c1.7,0,3.5-0.5,5-1.6l54.1-38.8h82.6c16.3,0,31.1-13.4,31.1-29.9V92.9
		C276.5,76.9,261.6,63.8,245.4,63.8z M259.5,204.1c0,7-7.3,12.8-14.1,12.8H160c-1.8,0-3.5,0.6-5,1.6L112.6,249l0.6-23.3
		c0.1-2.3-0.8-4.5-2.4-6.2c-1.6-1.6-3.8-2.6-6.1-2.6h-30c-6.8,0-10.9-5.9-10.9-12.8V92.9c0-6.8,3.9-12.1,10.9-12.1h170.7
		c7,0,14.1,5.3,14.1,12.1V204.1z"/>
	<path class="st0" d="M27.9,17h170.7c7,0,14.1,5.3,14.1,12.1V34c0,4.7,3.8,8.5,8.5,8.5s8.5-3.8,8.5-8.5v-4.9
		c0-16-14.8-29.1-31.1-29.1H27.9C11.6,0,0,13.1,0,29.1v111.2c0,8.2,2.5,15.4,8.7,20.9c1.6,1.4,2.8,2.1,4.8,2.1c2.3,0,5.1-1,6.8-2.9
		c3.1-3.5,3.2-8.9-0.3-12c-2.5-2.3-3-4.9-3-8.2V29.1C17,22.3,20.9,17,27.9,17z"/>
	<path class="st0" d="M96.2,119.1h34c2.4,0,4.3-1.9,4.3-4.3c0-2.3-1.9-4.3-4.3-4.3h-34c-2.4,0-4.3,1.9-4.3,4.3
		C92,117.2,93.9,119.1,96.2,119.1z"/>
	<path class="st0" d="M147.3,119.1h42.5c2.4,0,4.3-1.9,4.3-4.3c0-2.3-1.9-4.3-4.3-4.3h-42.5c-2.4,0-4.3,1.9-4.3,4.3
		S144.9,119.1,147.3,119.1z"/>
	<path class="st0" d="M223.8,110.6h-17c-2.4,0-4.3,1.9-4.3,4.3s1.9,4.3,4.3,4.3h17c2.4,0,4.3-1.9,4.3-4.3S226.2,110.6,223.8,110.6z"
		/>
	<path class="st0" d="M96.2,140.4h17c2.4,0,4.3-1.9,4.3-4.3c0-2.3-1.9-4.3-4.3-4.3h-17c-2.4,0-4.3,1.9-4.3,4.3
		C92,138.5,93.9,140.4,96.2,140.4z"/>
	<path class="st0" d="M130.2,131.9c-2.4,0-4.3,1.9-4.3,4.3c0,2.4,1.9,4.3,4.3,4.3h34c2.4,0,4.3-1.9,4.3-4.3c0-2.3-1.9-4.3-4.3-4.3
		H130.2z"/>
	<path class="st0" d="M223.8,131.9h-42.5c-2.4,0-4.3,1.9-4.3,4.3c0,2.4,1.9,4.3,4.3,4.3h42.5c2.4,0,4.3-1.9,4.3-4.3
		C228.1,133.8,226.2,131.9,223.8,131.9z"/>
	<path class="st0" d="M96.2,165.9h42.5c2.4,0,4.3-1.9,4.3-4.3c0-2.3-1.9-4.3-4.3-4.3H96.2c-2.4,0-4.3,1.9-4.3,4.3
		C92,164,93.9,165.9,96.2,165.9z"/>
	<path class="st0" d="M198.3,157.4h-42.5c-2.4,0-4.3,1.9-4.3,4.3c0,2.4,1.9,4.3,4.3,4.3h42.5c2.4,0,4.3-1.9,4.3-4.3
		C202.6,159.3,200.7,157.4,198.3,157.4z"/>
	<path class="st0" d="M223.8,157.4h-8.5c-2.4,0-4.3,1.9-4.3,4.3c0,2.4,1.9,4.3,4.3,4.3h8.5c2.4,0,4.3-1.9,4.3-4.3
		C228.1,159.3,226.2,157.4,223.8,157.4z"/>
	<path class="st0" d="M113.2,178.7h-17c-2.4,0-4.3,1.9-4.3,4.3c0,2.4,1.9,4.3,4.3,4.3h17c2.4,0,4.3-1.9,4.3-4.3
		C117.5,180.6,115.6,178.7,113.2,178.7z"/>
	<path class="st0" d="M160,178.7h-29.8c-2.4,0-4.3,1.9-4.3,4.3c0,2.4,1.9,4.3,4.3,4.3H160c2.4,0,4.3-1.9,4.3-4.3
		C164.3,180.6,162.4,178.7,160,178.7z"/>
</g>
</svg>
