<?xml version="1.0" encoding="UTF-8"?>
<svg width="40px" height="40px" viewBox="0 0 40 40" version="1.1" xmlns="http://www.w3.org/2000/svg" xmlns:xlink="http://www.w3.org/1999/xlink">
    <!-- Generator: Sketch 47.1 (45422) - http://www.bohemiancoding.com/sketch -->
    <title>Fill 166 Copy</title>
    <desc>Created with Sketch.</desc>
    <defs></defs>
    <g id="Page-1" stroke="none" stroke-width="1" fill="none" fill-rule="evenodd">
        <g id="Calendar-768x700-Day" transform="translate(-708.000000, -320.000000)" fill="#FFFFFE">
            <path d="M740.5,341.25 L743,341.25 L743,338.75 L740.5,338.75 L740.5,341.25 Z M728,357.5 C718.335,357.5 710.5,349.665 710.5,340 C710.5,330.33625 718.335,322.5 728,322.5 C737.665,322.5 745.5,330.33625 745.5,340 C745.5,349.665 737.665,357.5 728,357.5 L728,357.5 Z M728,320 C716.95375,320 708,328.955 708,340 C708,351.04625 716.95375,360 728,360 C739.04625,360 748,351.04625 748,340 C748,328.955 739.04625,320 728,320 L728,320 Z M735.595,330.34125 L737.325,332.075 L739.055,330.34125 L737.325,328.60875 L735.595,330.34125 L735.595,330.34125 Z M735.22875,348.4725 L736.99625,350.24 L738.76375,348.4725 L736.99625,346.705 L735.22875,348.4725 L735.22875,348.4725 Z M728,325 C727.31,325 726.75,325.55875 726.75,326.25 L726.75,338.77875 L716.75,338.77875 C716.05875,338.77875 715.5,339.34 715.5,340.03 C715.5,340.72 716.05875,341.27875 716.75,341.27875 L728,341.27875 C728.69125,341.27875 729.25,340.72 729.25,340.03 L729.25,326.25 C729.25,325.55875 728.69125,325 728,325 L728,325 Z M720.115,330.40375 L718.3475,328.63625 L716.58,330.40375 L718.3475,332.17125 L720.115,330.40375 L720.115,330.40375 Z M716.41625,348.54 L718.14625,350.27375 L719.87625,348.54 L718.14625,346.80625 L716.41625,348.54 L716.41625,348.54 Z M726.75,355 L729.25,355 L729.25,352.5 L726.75,352.5 L726.75,355 Z" id="Fill-166-Copy"></path>
        </g>
    </g>
</svg>