<?xml version="1.0" encoding="utf-8"?>
<!-- Generator: Adobe Illustrator 21.0.0, SVG Export Plug-In . SVG Version: 6.00 Build 0)  -->
<svg version="1.1" id="Layer_1" xmlns="http://www.w3.org/2000/svg" xmlns:xlink="http://www.w3.org/1999/xlink" x="0px" y="0px"
	 viewBox="0 0 70 70" style="enable-background:new 0 0 70 70;" xml:space="preserve">
<style type="text/css">
	.st0{fill:#FFFFFF;}
</style>
<g id="Icon_User_1_">
	<path class="st0" d="M35,70C15.7,70,0,54.3,0,35S15.7,0,35,0s35,15.7,35,35S54.3,70,35,70z M35,3.8C17.8,3.8,3.8,17.8,3.8,35
		s14,31.2,31.2,31.2s31.2-14,31.2-31.2S52.2,3.8,35,3.8z"/>
	<path class="st0" d="M14.6,60.3l-3.5-1.5c1.1-2.4,4.2-3.8,7.9-5.5c3.5-1.6,7.9-3.6,7.9-5.9v-3.2c-1.2-1-3.4-3.3-3.7-6.7
		c-1-1-2.7-2.9-2.7-5.3c0-1.5,0.6-2.6,1.1-3.4c-0.3-1.6-0.9-4.9-0.9-7.3c0-8.1,5.6-13.3,14.3-13.3c2.5,0,5.5,0.7,7.2,2.5
		c3.9,0.7,7.1,5.4,7.1,10.8c0,3.5-0.6,6.4-1,7.8c0.4,0.7,0.9,1.7,0.9,2.9c0,2.7-1.4,4.5-2.6,5.4c-0.4,3.3-2.3,5.5-3.4,6.5v3.2
		c0,2,3.6,3.3,7.1,4.6c4,1.5,8.1,3,9.3,6.3l-3.6,1.4c-0.6-1.7-4.1-3-7.1-4.1c-4.5-1.7-9.6-3.6-9.6-8.2v-5.2l0.9-0.6
		c0.1-0.1,2.6-1.7,2.6-5.1v-1.3l1.2-0.5c0.2-0.1,1.4-0.7,1.4-2.5c0-0.5-0.4-1.1-0.6-1.3l-0.7-0.8l0.3-1c0,0,1.1-3.3,1.1-7.5
		c0-3.6-2.1-7.1-4.3-7.1h-1.1l-0.6-1c-0.4-0.7-2.1-1.4-4.5-1.4c-6.6,0-10.5,3.5-10.5,9.4c0,2.8,1,7.3,1,7.3l0.2,1L25,30.7l0,0
		c0,0-0.7,0.7-0.7,1.5c0,1.1,1.3,2.4,1.9,2.9l0.7,0.6l0,1c0,3.2,2.7,5,2.9,5l0.9,0.6l0,5.2c0,4.8-5.4,7.3-10.2,9.4
		C18.2,57.8,15.1,59.3,14.6,60.3z"/>
</g>
</svg>
