<?xml version="1.0" encoding="utf-8"?>
<!-- Generator: Adobe Illustrator 21.0.2, SVG Export Plug-In . SVG Version: 6.00 Build 0)  -->
<svg version="1.1" id="Layer_1" xmlns="http://www.w3.org/2000/svg" xmlns:xlink="http://www.w3.org/1999/xlink" x="0px" y="0px"
	 viewBox="0 0 49.5 61.8" style="enable-background:new 0 0 49.5 61.8;" xml:space="preserve">
<style type="text/css">
	.st0{fill:#FFFFFF;}
</style>
<path class="st0" d="M49.5,51.2c-0.2-0.8-0.5-1.3-0.5-1.4c-0.3-0.8-0.8-1.5-1.4-2.1l0,0c0,0,0,0,0,0c-1.9-1.8-4.9-2.9-7.8-4
	c-3.5-1.3-7.1-2.6-7.1-4.6v-3.2c1.1-1,3-3.2,3.4-6.5c1.2-0.9,2.6-2.7,2.6-5.4c0-1.2-0.5-2.2-0.9-2.9c0.4-1.4,1-4.3,1-7.8
	c0-5.4-3.2-10.1-7.1-10.8C30,0.7,27,0,24.5,0c-8.7,0-14.3,5.2-14.3,13.3c0,2.4,0.6,5.7,0.9,7.3C10.6,21.4,10,22.5,10,24
	c0,2.4,1.7,4.3,2.7,5.3c0.3,3.4,2.5,5.7,3.7,6.7v3.2c0,2.3-4.4,4.3-7.9,5.9c-2.5,1.2-4.8,2.2-6.3,3.5c0,0,0,0,0,0l0,0
	c-0.6,0.5-1.1,1.1-1.5,1.8c0,0.1-0.4,0.7-0.7,1.5c0.9,0.9,1.8,1.7,2.8,2.5l0.1,0.1c0,0,0,0,0,0c5.9,4.7,13.4,7.5,21.6,7.5
	C34.3,61.8,43.1,57.7,49.5,51.2L49.5,51.2z M24.5,58c-7.3,0-14.1-2.6-19.4-6.8c1.2-0.9,3.3-1.8,4.9-2.5c4.8-2.1,10.2-4.6,10.2-9.4
	v-5.2l-0.9-0.6c-0.2,0-2.9-1.8-2.9-5v-1l-0.7-0.6c-0.6-0.5-1.9-1.8-1.9-2.9c0-0.8,0.7-1.5,0.7-1.5l0.7-1l-0.2-1c0,0-1-4.5-1-7.3
	c0-5.9,3.9-9.4,10.5-9.4c2.4,0,4.1,0.7,4.5,1.4l0.6,1h1.1c2.2,0,4.3,3.5,4.3,7.1c0,4.2-1.1,7.5-1.1,7.5l-0.3,1l0.7,0.8
	c0.2,0.2,0.6,0.8,0.6,1.3c0,1.8-1.2,2.4-1.4,2.5l-1.2,0.5v1.3c0,3.4-2.5,5-2.6,5.1l-0.9,0.6v5.2c0,4.6,5.1,6.5,9.6,8.2
	c2.4,0.9,5.1,1.9,6.4,3.1C39.3,55.1,32.2,58,24.5,58z"/>
</svg>
