<?xml version="1.0" encoding="utf-8"?>
<!-- Generator: Adobe Illustrator 21.0.0, SVG Export Plug-In . SVG Version: 6.00 Build 0)  -->
<svg version="1.1" id="Layer_1" xmlns="http://www.w3.org/2000/svg" xmlns:xlink="http://www.w3.org/1999/xlink" x="0px" y="0px"
	 viewBox="0 0 281.6 282" style="enable-background:new 0 0 281.6 282;" xml:space="preserve">
<style type="text/css">
	.st0{clip-path:url(#SVGID_2_);}
</style>
<g>
	<defs>
		<path id="SVGID_1_" d="M274.1,203.4c-2.7-0.9-5.7-1.3-9-1.3c-10.7,0-28.3,4.3-52.9,12.8c-14.4,5.1-37.4,13.9-68.9,26.5
			c-29.2,11.7-48.9,19.2-58.8,22.5c-16,5.1-27.5,7.6-34.4,7.6c-5,0-7.6-1.1-7.6-3.4c0-5.5,16.5-19.3,49.5-41.4
			c30.7-20.4,61.5-40.8,92.2-61.2c33.2-23.1,50-38.5,50.5-46.3c0.4-6.3-1.8-10.6-6.7-12.8c-3.4-1.6-9.1-2.4-17.2-2.4
			c-13.1,0-31.2,3.5-54.2,10.6c-15.8,4.9-31.1,10.6-45.8,16.8c6.5-30.6,12.9-63,19.3-97.6c0.1,0,0.3,0.1,0.5,0.2
			c3.6,0.2,5.5-1.6,5.7-5.3c0.3-9.7,0.4-14.8,0.4-15.2c-0.3-7.4-2.4-11.3-6.1-11.6c-3.8-0.5-6.3,3.3-7.5,11.2
			c-4.4,26.7-11.3,62.5-20.9,107.3c-1.2,5.7-2.3,11.1-3.4,16.2c-6.9,3.2-11,5.4-12.3,6.7c-0.9,0.9-1.3,1.9-1.3,3.1
			c0,3,1.4,4.5,4.3,4.5c1.1,0,2.2-0.4,3.3-1.2c1.1-0.8,2.4-1.6,3.7-2.4c-7.4,34.2-13.2,57-17.2,68.6c-2.6-7-7.5-23.5-14.8-49.5
			C52.5,122.1,43,91.1,36.1,73.7c-9.7-24.3-19.1-37-28.2-38c-3.5-0.5-5.4,1.1-5.9,4.8c-0.5,3.5,1.1,5.5,4.8,6
			c9.5,1.2,25.4,42.2,47.7,122.8c7.3,26.3,12.2,42.9,14.8,50c1.3,3.4,2.6,6.1,3.9,8.2c-5.1,3.5-9.2,6.6-12.3,9
			c-18,14.1-27,25.1-27,32.7c0,3.8,1.9,6.7,5.8,8.7c3.1,1.7,6.8,2.5,11.1,2.5c10.8,0,28.8-4.5,54.1-13.6c7.5-2.7,25.2-9.7,53.2-20.9
			c27.3-11,45-17.9,53.2-20.9c26-9.4,44-14.1,54.2-14.1c0.7,0,2.3,0.4,4.9,1.2c2.6,0.8,4.5,1.2,5.8,1.2c2.7,0,4-1.4,4-4.2
			C279.9,206.5,278,204.6,274.1,203.4 M107.3,148.2c0.5-2.4,1-4.8,1.5-7.2c10.7-4.9,24.8-10.1,42.2-15.5
			c27.3-8.5,47.1-12.7,59.4-12.7c10.4,0,15.5,1.7,15.5,5.2c0,4.3-10.2,13.7-30.5,28.4c-12.3,8.9-28.4,19.6-48.1,32.3
			c-28.8,18.4-45.1,28.9-48.7,31.4c-2.8,1.8-5.4,3.6-7.9,5.3C95,201.8,100.5,179.4,107.3,148.2"/>
	</defs>
	<use xlink:href="#SVGID_1_"  style="overflow:visible;fill-rule:evenodd;clip-rule:evenodd;fill:#FFFFFF;"/>
	<clipPath id="SVGID_2_">
		<use xlink:href="#SVGID_1_"  style="overflow:visible;"/>
	</clipPath>
	<g class="st0">
		<defs>
			<rect id="SVGID_3_" x="1.9" y="1.9" width="278.5" height="278.5"/>
		</defs>
		<use xlink:href="#SVGID_3_"  style="overflow:visible;fill:#FFFFFF;"/>
		<clipPath id="SVGID_4_">
			<use xlink:href="#SVGID_3_"  style="overflow:visible;"/>
		</clipPath>
	</g>
</g>
</svg>
