<?xml version="1.0" encoding="utf-8"?>
<!-- Generator: Adobe Illustrator 21.0.0, SVG Export Plug-In . SVG Version: 6.00 Build 0)  -->
<svg version="1.1" id="Layer_1" xmlns="http://www.w3.org/2000/svg" xmlns:xlink="http://www.w3.org/1999/xlink" x="0px" y="0px"
	 viewBox="0 0 232.7 330.9" style="enable-background:new 0 0 232.7 330.9;" xml:space="preserve">
<style type="text/css">
	.st0{fill-rule:evenodd;clip-rule:evenodd;fill:#FFFFFF;}
</style>
<g>
	<path class="st0" d="M196.8,0h-161C16,0,0,16,0,35.8v259.2c0,19.8,16,35.8,35.8,35.8h161c19.8,0,35.8-16,35.8-35.8V35.8
		C232.7,16,216.6,0,196.8,0z M20.7,56.9H212v196.5H20.7V56.9z M35.8,20.7h161c8.4,0,15.2,6.8,15.2,15.2v10.7H20.7V35.8
		C20.7,27.5,27.5,20.7,35.8,20.7z M196.8,310.2h-161c-8.4,0-15.2-6.8-15.2-15.2v-31.4H212v31.4C212,303.4,205.2,310.2,196.8,310.2z"
		/>
	<path class="st0" d="M120.2,274h-2.6c-5,0-9,4.1-9,9v2.6c0,5,4.1,9,9,9h2.6c5,0,9-4,9-9v-2.6C129.3,278.1,125.2,274,120.2,274z"/>
	<path class="st0" d="M142.8,134.7c-2.7-1-5.6,0.5-6.6,3.2l-1.4,4c-0.9,2.7,0.5,5.7,3.2,6.6c0.6,0.2,1.1,0.3,1.7,0.3
		c2.1,0,4.1-1.3,4.9-3.5l1.4-4C146.9,138.6,145.5,135.6,142.8,134.7z"/>
	<path class="st0" d="M136.4,153.1c-2.7-1-5.7,0.5-6.6,3.2L115.1,198c-0.9,2.7,0.5,5.6,3.2,6.6c0.6,0.2,1.1,0.3,1.7,0.3
		c2.1,0,4.1-1.3,4.9-3.5l14.7-41.8C140.5,157,139.1,154,136.4,153.1z"/>
	<path class="st0" d="M122.2,94.8c-2.7-1-5.7,0.5-6.6,3.2L94.2,159c-0.9,2.7,0.5,5.6,3.2,6.6c0.6,0.2,1.1,0.3,1.7,0.3
		c2.1,0,4.1-1.3,4.9-3.5l21.4-61.1C126.3,98.7,124.9,95.7,122.2,94.8z"/>
	<path class="st0" d="M93.8,175.5c-2.7-1-5.6,0.5-6.6,3.2l-3.2,9c-0.9,2.7,0.5,5.7,3.2,6.6c0.6,0.2,1.1,0.3,1.7,0.3
		c2.1,0,4.1-1.3,4.9-3.5l3.2-9C97.9,179.4,96.5,176.5,93.8,175.5z"/>
</g>
</svg>
