<?xml version="1.0" encoding="UTF-8"?>
<svg width="80px" height="84px" viewBox="0 0 80 84" version="1.1" xmlns="http://www.w3.org/2000/svg" xmlns:xlink="http://www.w3.org/1999/xlink">
    <!-- Generator: Sketch 46.2 (44496) - http://www.bohemiancoding.com/sketch -->
    <title>Fill 21</title>
    <desc>Created with Sketch.</desc>
    <defs></defs>
    <g id="Page-1" stroke="none" stroke-width="1" fill="none" fill-rule="evenodd">
        <g id="Calendar-960x700" transform="translate(0.000000, -480.000000)" fill="#666666">
            <path d="M37.6031776,548.675061 C37.2386208,549.954509 35.8430516,550.736393 34.5585583,550.369618 L34.2452673,550.234565 C33.5873561,549.965881 32.8269133,550.223193 32.4709007,550.840171 C31.7902047,552.011576 30.9414708,553.083469 29.9446357,554.016044 C29.4205852,554.510764 29.3465346,555.315394 29.7709016,555.893989 C29.8136231,555.955118 29.9474838,556.077376 29.9987496,556.127132 C30.3177368,556.695776 30.3946355,557.358245 30.2152052,557.989439 C30.0357749,558.62632 29.6199522,559.15658 29.0432119,559.469334 C27.882611,560.113323 26.3076115,559.618603 25.7379914,558.597888 C25.7237509,558.543867 25.6525484,558.303615 25.6354598,558.248172 C25.3819789,557.548741 24.6357765,557.170593 23.9237515,557.363932 C22.7389417,557.679529 21.5142585,557.8487 20.2838792,557.8487 L19.8851451,557.841592 C19.1133099,557.817425 18.5636265,558.326361 18.4411582,559.018684 C18.4383101,559.037165 18.3841962,559.347076 18.3841962,559.361292 C18.0224874,560.642161 16.6041335,561.424045 15.3452731,561.0658 C14.037995,560.69476 13.2775522,559.325751 13.6478053,558.026401 L13.7617293,557.759139 C14.0579317,557.08814 13.8044508,556.313363 13.1750206,555.945167 C11.995907,555.259951 10.9250213,554.419781 9.99084435,553.421812 C9.50666729,552.917141 8.72628778,552.827579 8.1452753,553.231316 C8.01141458,553.316613 7.89179437,553.421812 7.88609817,553.475833 C6.72692131,554.122665 5.1690104,553.660642 4.53388401,552.526198 C3.87312472,551.337734 4.29891573,549.837937 5.40540273,549.223802 C5.46806094,549.211007 5.72296592,549.129976 5.78277603,549.10723 C6.45919987,548.837124 6.82660482,548.107839 6.6386302,547.409829 C6.28261765,546.097685 6.12312403,544.740049 6.16299743,543.376726 C6.18293413,542.654549 5.65603556,542.033306 4.94116236,541.928107 C4.93546616,541.928107 4.64211182,541.882616 4.63641562,541.882616 C4.00271329,541.704915 3.48008686,541.288383 3.15825152,540.714054 C2.83641618,540.139724 2.75809342,539.474411 2.93894779,538.843217 C3.30065654,537.570877 4.77027634,536.807474 5.9664785,537.145816 C6.06046582,537.174249 6.14306073,537.209789 6.23135184,537.256702 C6.90919973,537.568034 7.70097164,537.323517 8.06837659,536.679529 C8.75476878,535.496751 9.6035027,534.430544 10.5974897,533.497969 C11.1215402,533.006093 11.1984389,532.204305 10.774072,531.625711 C10.7313505,531.570268 10.6003378,531.453696 10.5462239,531.392567 C10.2272367,530.828188 10.150338,530.171405 10.3297683,529.535946 C10.5091986,528.899066 10.9250213,528.374492 11.5003376,528.056052 C12.6595144,527.414907 14.2316658,527.905361 14.8012859,528.910439 C14.8183745,528.982941 14.9038175,529.260154 14.9322985,529.32697 C15.2085643,529.979488 15.9262856,530.33489 16.6155259,530.14866 C17.7974875,529.833063 19.0250188,529.666734 20.2610944,529.666734 L20.6541322,529.673842 C21.3832459,529.693745 22.0041318,529.164907 22.1038153,528.446994 L22.1493849,528.152721 C22.5110937,526.873274 23.8895742,526.082859 25.1911561,526.456742 C26.4984342,526.824939 27.258877,528.18684 26.888624,529.490455 L26.7576113,529.798944 C26.4784975,530.451462 26.7376746,531.220552 27.3585605,531.578798 C28.5376741,532.262591 29.6085598,533.105605 30.5427368,534.097888 C31.0440024,534.630991 31.8585591,534.697807 32.4367235,534.268481 C32.4879893,534.225833 32.6076095,534.097888 32.6531791,534.048132 C33.8009636,533.402721 35.3617226,533.859058 36.0025452,535.004874 C36.3215324,535.580626 36.3984312,536.241673 36.2190008,536.879976 C36.0424186,537.512591 35.6265959,538.022949 35.1509632,538.294476 C35.0769126,538.312957 34.8034949,538.392567 34.7351405,538.423842 C34.0715331,538.692526 33.7126725,539.417547 33.897799,540.111292 C34.2538116,541.422015 34.4133052,542.779651 34.3734318,544.142973 C34.3534951,544.870837 34.8860898,545.497766 35.6095073,545.593014 C35.6152035,545.593014 35.9057098,545.638505 35.9057098,545.638505 C37.2129879,546.009545 37.9734307,547.372868 37.6031776,548.675061 L37.6031776,548.675061 Z M37.2186841,543.090983 C37.187355,542.240861 37.0876714,541.380788 36.9224816,540.540617 C37.9107725,539.848294 38.6284938,538.840374 38.9645696,537.660439 C39.3519113,536.297116 39.1867214,534.866978 38.494633,533.625914 C37.215836,531.325751 34.2623559,530.265232 31.7788123,531.321487 C31.146534,530.730097 30.4715342,530.199838 29.7595091,529.722177 C30.2123571,527.095045 28.6088766,524.476442 25.9772318,523.730097 C23.399701,522.996548 20.591474,524.415313 19.6003351,526.844842 C18.7373606,526.87896 17.8800824,526.97563 17.0370447,527.139115 C15.5360958,525.019496 12.4259702,524.284525 10.1147367,525.573924 C8.8772371,526.261982 7.97866143,527.393582 7.59274383,528.755483 C7.25666798,529.935418 7.33641479,531.16511 7.81204756,532.275386 C7.22818698,532.909423 6.6927441,533.580422 6.21426324,534.291227 C3.57407418,533.847685 0.933885117,535.51381 0.204771418,538.06844 C-0.182570235,539.42892 -0.0173804122,540.856214 0.674707982,542.100122 C1.27280906,543.172015 2.20128979,543.98091 3.32628944,544.434403 C3.35761855,545.283103 3.45730206,546.141755 3.62249188,546.983347 C1.43515079,548.52437 0.717429488,551.512591 2.05034047,553.899472 C3.33483374,556.203899 6.35666826,557.223193 8.76616119,556.203899 C9.39843947,556.791024 10.0734393,557.321284 10.7854644,557.798944 C10.3297683,560.427498 11.9332488,563.044679 14.5663176,563.800975 C15.0391023,563.934606 15.5275515,564 16.0145767,564 C18.1905254,564 20.1428982,562.655158 20.9474865,560.672015 C21.8076129,560.642161 22.6648911,560.54407 23.5079288,560.377742 C25.0074537,562.495938 28.110459,563.240861 30.4316608,561.951462 C31.6705845,561.260561 32.5677361,560.130382 32.9550778,558.767059 C33.2883055,557.584281 33.2085587,556.35459 32.732926,555.25 C33.3196346,554.618806 33.8522294,553.944963 34.3307103,553.234159 C36.9566588,553.687652 39.6110884,552.014419 40.3402021,549.459789 C41.0864044,546.836921 39.7107719,544.097482 37.2186841,543.090983 L37.2186841,543.090983 Z M73.1075971,509.970349 C72.3813315,509.88221 71.7191481,510.337124 71.5411418,511.033712 C71.0939901,512.773761 70.4033257,514.437043 69.4819653,515.978067 C69.1131363,516.589358 69.2598134,517.379773 69.8194652,517.823314 C69.8835474,517.871649 70.1655094,518.033712 70.2281676,518.070674 C70.9060155,518.744517 71.2791166,519.642973 71.2791166,520.598294 C71.2791166,521.553615 70.9003193,522.454915 70.2281676,523.128757 C68.8767439,524.482128 66.4772194,524.467912 65.1813337,523.144395 C65.1471565,523.083266 64.9734224,522.801787 64.9307008,522.740658 C64.4949415,522.16775 63.6946253,522.014216 63.063771,522.386677 C61.5243728,523.316409 59.8596581,524.010154 58.1095004,524.449431 C57.4088677,524.627132 56.9731084,525.451665 57.07564,526.170999 C57.0898805,526.273355 57.1098172,526.367181 57.1098172,526.465272 C57.1098172,528.446994 55.4949443,530.049147 53.5183626,530.049147 C51.5346607,530.049147 49.926908,528.438465 49.926908,526.465272 C49.926908,526.361495 49.9496928,526.261982 49.98387,526.011779 C50.0778573,525.295288 49.6221613,524.627132 48.9258007,524.449431 C47.175643,523.995938 45.5123524,523.305037 43.9715301,522.386677 C43.7493783,522.250203 43.4930492,522.184809 43.2409923,522.184809 C42.8237456,522.184809 42.4121951,522.369618 42.1288091,522.719334 C42.0775433,522.786149 41.9180497,523.066206 41.8781763,523.134444 C40.5253286,524.487815 38.1585572,524.487815 36.8028614,523.134444 C36.1250135,522.460601 35.7519124,521.562145 35.7519124,520.603981 C35.7547605,519.64866 36.1250135,518.750203 36.7971652,518.096263 C36.8626715,518.059301 37.1446335,517.880179 37.2044436,517.831844 C37.7712155,517.391145 37.9164687,516.597888 37.5490637,515.983753 C36.6262792,514.442729 35.9341908,512.779448 35.4927352,511.039399 C35.316153,510.337124 34.5101406,509.904955 33.7667864,510.001625 C31.770268,510.283103 29.8819775,508.523152 29.8819775,506.450447 C29.8819775,504.474411 31.4911542,502.867994 33.470584,502.867994 C33.5788118,502.867994 33.6813434,502.88221 33.9405205,502.919171 C34.6411532,503.001625 35.3190011,502.552396 35.4955833,501.858652 C35.9370389,500.118603 36.6291273,498.455321 37.5547599,496.919984 C37.925013,496.303006 37.7740636,495.504062 37.2044436,495.063363 C37.1474816,495.017872 36.8683677,494.864338 36.8057095,494.827376 C36.1278616,494.153534 35.7547605,493.255077 35.7547605,492.296913 C35.7547605,491.338749 36.1278616,490.437449 36.8057095,489.763607 C38.1585572,488.407392 40.5481134,488.421608 41.8496953,489.749391 C41.8895687,489.820471 42.0775433,490.116166 42.1316572,490.178716 C42.578809,490.727457 43.3634607,490.869618 43.9743782,490.502843 C45.5095043,489.584484 47.1784911,488.893582 48.9286488,488.444354 C49.6307056,488.265232 50.069313,487.454915 49.9667814,486.738424 C49.9525409,486.638911 49.928332,486.536556 49.928332,486.431357 C49.928332,484.452478 51.5403569,482.84606 53.5212107,482.84606 C55.5006405,482.84606 57.1098172,484.455321 57.1098172,486.431357 C57.1098172,486.530869 57.0927286,486.627539 57.0557033,486.883428 C56.961716,487.594232 57.417412,488.265232 58.1123485,488.444354 C59.8639303,488.893582 61.5329171,489.584484 63.0737394,490.502843 C63.6832329,490.869618 64.4764288,490.721771 64.9136122,490.155971 C64.963454,490.099106 65.1129793,489.820471 65.1500046,489.75792 C66.5014282,488.401706 68.8596553,488.398863 70.2253195,489.75792 C70.8960471,490.434606 71.2762685,491.333063 71.2762685,492.291227 C71.2762685,493.249391 70.8960471,494.145004 70.2367119,494.796101 C70.1697815,494.833063 69.8806993,495.015028 69.8194652,495.06052 C69.2598134,495.501219 69.1074401,496.297319 69.4762691,496.914297 C70.4090219,498.449634 71.0996863,500.112916 71.5411418,501.852965 C71.7191481,502.552396 72.5536415,502.990252 73.247154,502.893582 C75.2849698,502.614947 77.1518996,504.363526 77.1518996,506.44476 C77.1518996,508.420796 75.5398748,510.027214 73.5632931,510.027214 C73.4636096,510.027214 73.3639261,510.007311 73.1075971,509.970349 L73.1075971,509.970349 Z M80,506.441917 C80,503.04143 77.3455704,500.249391 73.9905082,500.030463 C73.6074387,498.819253 73.1189895,497.645004 72.5294327,496.521933 C73.5689893,495.353371 74.1300651,493.866369 74.1300651,492.288383 C74.1300651,490.57108 73.4636096,488.956133 72.2503188,487.744923 C69.9177246,485.413485 65.8976309,485.305443 63.4496886,487.454915 C62.3332333,486.872055 61.1583919,486.388708 59.9436771,486.007717 C59.7286455,482.658408 56.9246907,480 53.5212107,480 C50.1163067,480 47.3123518,482.658408 47.0987443,486.007717 C45.8911497,486.388708 44.7177324,486.872055 43.5913087,487.454915 C41.1405183,485.299756 37.130393,485.416328 34.7977987,487.744923 C33.5816599,488.958976 32.9123563,490.57108 32.9123563,492.288383 C32.9152044,493.869212 33.4819764,495.364744 34.5101406,496.524777 C33.9234319,497.645004 33.4364067,498.819253 33.0576094,500.030463 C29.7025471,500.246548 27.0395733,503.04143 27.0395733,506.441917 C27.0395733,509.842405 29.7025471,512.637287 33.0576094,512.853371 C33.4364067,514.064582 33.9205838,515.235987 34.5101406,516.359058 C33.4762802,517.52762 32.9123563,519.017465 32.9123563,520.592608 C32.9123563,522.309911 33.5816599,523.923436 34.7977987,525.138911 C37.1332411,527.467506 41.1661512,527.567019 43.5913087,525.42892 C44.707764,526.014622 45.8826054,526.500812 47.0987443,526.87896 C47.3123518,530.224005 50.1106105,532.886677 53.5212107,532.886677 C56.9303869,532.886677 59.7286455,530.226848 59.9436771,526.881803 C61.1469995,526.500812 62.3275371,526.017465 63.4496886,525.42892 C65.9061752,527.575548 69.9205727,527.46182 72.2446226,525.138911 C73.4636096,523.922015 74.1300651,522.309911 74.1300651,520.592608 C74.1300651,519.011779 73.5575969,517.516247 72.5351289,516.359058 C73.1246857,515.235987 73.6074387,514.061738 73.9905082,512.853371 C77.3370261,512.637287 80,509.845248 80,506.441917 L80,506.441917 Z M53.5212107,511.278229 C50.8525406,511.278229 48.6822881,509.111698 48.6822881,506.44476 C48.6822881,503.777823 50.8496925,501.608448 53.5212107,501.608448 C56.1927289,501.608448 58.3601332,503.777823 58.3601332,506.44476 C58.3601332,509.108855 56.1898808,511.278229 53.5212107,511.278229 L53.5212107,511.278229 Z M53.5212107,498.765232 C49.2818133,498.765232 45.8341877,502.208367 45.8341877,506.44476 C45.8341877,510.67831 49.2818133,514.121446 53.5212107,514.121446 C57.7591841,514.121446 61.2082336,510.67831 61.2082336,506.44476 C61.2082336,502.208367 57.7591841,498.765232 53.5212107,498.765232 L53.5212107,498.765232 Z M23.6190047,544.725833 C23.1091947,546.519903 21.1411574,547.638708 19.315525,547.119821 C18.4212215,546.863932 17.6778673,546.275386 17.2250193,545.465069 C16.7721714,544.649066 16.6639436,543.706539 16.9174245,542.818034 C17.3417915,541.322502 18.720272,540.283306 20.2696387,540.283306 C20.5886259,540.283306 20.9104612,540.328798 21.2209042,540.418359 C22.1152077,540.67567 22.8557138,541.264216 23.3085618,542.07169 C23.7642578,542.887693 23.8724856,543.831641 23.6190047,544.725833 L23.6190047,544.725833 Z M22.0041318,537.684606 C18.6974872,536.747766 15.1088808,538.776401 14.1804,542.033306 C13.7190078,543.65394 13.9155267,545.357027 14.7414758,546.836921 C15.5645768,548.313972 16.9145764,549.383022 18.5394177,549.843623 C19.1047656,550.007108 19.6857781,550.085297 20.2696387,550.085297 C23.0835618,550.085297 25.5898902,548.1974 26.3617254,545.49208 C26.8231176,543.874289 26.6265987,542.171202 25.8006496,540.694151 C24.9775486,539.211413 23.6303971,538.145207 22.0041318,537.684606 L22.0041318,537.684606 Z" id="Fill-21"></path>
        </g>
    </g>
</svg>