
<svg width="11px" height="22px" viewBox="0 0 11 22" version="1.1" xmlns="http://www.w3.org/2000/svg" xmlns:xlink="http://www.w3.org/1999/xlink">
    <g id="Page-1" stroke="none" stroke-width="1" fill="none" fill-rule="evenodd">
        <g id="Archive-1280x700-Primer" transform="translate(-980.000000, -1129.000000)" fill="#FFFFFF">
            <g id="Group-10" transform="translate(980.000000, 1129.000000)">
                <path d="M0,7.49812595 L2.2114713,7.49812595 L2.2114713,5.42430607 C2.2114713,4.50962635 2.23541022,3.09930017 2.92357839,2.22585121 C3.64901855,1.3009369 4.64415033,0.672240803 6.35654061,0.672240803 C9.14618226,0.672240803 10.3207044,1.05618405 10.3207044,1.05618405 L9.76798811,4.21750197 C9.76798811,4.21750197 8.84649123,3.96046762 7.98681131,3.96046762 C7.12652534,3.96046762 6.35654061,4.25785549 6.35654061,5.08744193 L6.35654061,7.49812595 L9.88313734,7.49812595 L9.63677859,10.5860473 L6.35654061,10.5860473 L6.35654061,21.3136496 L2.2114713,21.3136496 L2.2114713,10.5860473 L0,10.5860473 L0,7.49812595" id="03-Facebook"></path>
            </g>
        </g>
    </g>
</svg>