
<svg width="22px" height="24px" viewBox="0 0 22 24" version="1.1" xmlns="http://www.w3.org/2000/svg" xmlns:xlink="http://www.w3.org/1999/xlink">
    <g id="Page-1" stroke="none" stroke-width="1" fill="none" fill-rule="evenodd">
        <g id="Archive-1280x700-Primer" transform="translate(-1218.000000, -1130.000000)" fill="#FFFFFF">
            <g id="Group-10" transform="translate(980.000000, 1129.000000)">
                <g id="Group-7" transform="translate(238.260870, 1.000000)">
                    <path d="M13.3730098,14.8330745 C12.9351216,14.2453416 12.4032893,13.7399068 11.8380719,13.2756211 C11.2945937,12.8299689 10.6105875,12.4045031 10.2379167,11.7895963 C9.37611543,10.367236 11.2332583,9.27251553 12.0368297,8.3734472 C13.8636931,6.33229814 13.3815502,2.58307453 11.0562397,1.10869565 C11.633103,1.10869565 12.4258049,1.25854037 12.9723887,1.0939441 C13.6051527,0.902950311 14.2627614,0.338509317 14.8365192,0.00310559006 C12.8481651,0.00310559006 10.8598111,-0.00388198758 8.87145704,0.00310559006 C7.01431419,0.00931677019 5.08962474,0.273291925 3.61291667,1.48990683 C1.93279245,2.8742236 1.03450052,5.14596273 1.72238872,7.27562112 C2.52285456,9.75310559 5.12611543,10.8121118 7.54459369,10.515528 C7.40950052,11.0256211 7.18667443,11.4293478 7.25422102,11.9759317 C7.33807195,12.6537267 7.72238872,13.2748447 8.13155021,13.8051242 C5.92347568,13.8618012 3.2914881,14.2476708 1.54847568,15.7158385 C-0.0998162491,17.1048137 -0.597487057,19.625 0.870680645,21.3198758 C2.38853779,23.0714286 5.20530797,23.4161491 7.37223344,23.2600932 C9.29769928,23.121118 11.2068608,22.5170807 12.6012707,21.1312112 C14.2456806,19.4976708 14.8404011,16.8020186 13.3730098,14.8330745 C13.1261154,14.5015528 13.6199042,15.1645963 13.3730098,14.8330745 L13.3730098,14.8330745 Z M7.9785999,9.74534161 C3.98481108,9.74534161 2.20220238,0.988354037 6.81710922,1.01086957 C9.07487319,1.02251553 10.0950595,3.52173913 10.435898,5.39829193 C10.7845005,7.32142857 10.3722334,9.74534161 7.9785999,9.74534161 L7.9785999,9.74534161 Z M11.8466123,20.2600932 C10.5360533,22.5023292 6.86291667,22.2880435 4.82564959,21.3889752 C2.70918996,20.4557453 1.6362086,17.7080745 3.58574276,15.9836957 C4.43589804,15.2305901 5.68978002,14.8975155 6.78760611,14.7445652 C7.39397257,14.6599379 8.06555642,14.5854037 8.67735766,14.6537267 C9.11912785,14.7026398 9.3862086,14.9541925 9.75655021,15.2166149 C11.3605875,16.3532609 13.0717676,18.1622671 11.8466123,20.2600932 C11.5911775,20.6979814 12.1043763,19.818323 11.8466123,20.2600932 L11.8466123,20.2600932 Z" id="Fill-126"></path>
                    <polyline id="Fill-127" points="21.7391304 3.10559006 18.6335404 3.10559006 18.6335404 0 17.0807453 0 17.0807453 3.10559006 13.9751553 3.10559006 13.9751553 4.65838509 17.0807453 4.65838509 17.0807453 7.76397516 18.6335404 7.76397516 18.6335404 4.65838509 21.7391304 4.65838509 21.7391304 3.10559006"></polyline>
                </g>
            </g>
        </g>
    </g>
</svg>