
<svg width="22px" height="21px" viewBox="0 0 22 21" version="1.1" xmlns="http://www.w3.org/2000/svg" xmlns:xlink="http://www.w3.org/1999/xlink">
    <g id="Page-1" stroke="none" stroke-width="1" fill="none" fill-rule="evenodd">
        <g id="Archive-1280x700-Primer" transform="translate(-1093.000000, -1130.000000)" fill="#FFFFFF">
            <g id="Group-10" transform="translate(980.000000, 1129.000000)">
                <path d="M114.219281,8.02827575 L118.271913,8.02827575 L118.271913,21.0701605 L114.219281,21.0701605 L114.219281,8.02827575 Z M116.124719,6.3843407 L116.095277,6.3843407 C114.629629,6.3843407 113.67893,5.38216019 113.67893,4.11261244 C113.67893,2.81775711 114.658188,1.8361204 116.153279,1.8361204 C117.647486,1.8361204 118.566682,2.81537522 118.596124,4.10903961 C118.596124,5.37918282 117.647486,6.3843407 116.124719,6.3843407 L116.124719,6.3843407 Z M134.320339,21.0701605 L129.766212,21.0701605 L129.766212,14.3014044 C129.766212,12.5296747 129.054866,11.320597 127.487689,11.320597 C126.289465,11.320597 125.623947,12.1363531 125.313372,12.9232934 C125.197198,13.2049165 125.215004,13.5982381 125.215004,13.9924509 L125.215004,21.0701605 L120.703493,21.0701605 C120.703493,21.0701605 120.762164,9.08008971 120.703493,7.98984022 L125.215004,7.98984022 L125.215004,10.0425988 C125.481794,9.1451482 126.922874,7.86388224 129.224457,7.86388224 C132.07801,7.86388224 134.320339,9.74582516 134.320339,13.7966813 L134.320339,21.0701605 L134.320339,21.0701605 Z" id="09-Linkedin"></path>
            </g>
        </g>
    </g>
</svg>