
<svg width="20px" height="21px" viewBox="0 0 20 21" version="1.1" xmlns="http://www.w3.org/2000/svg" xmlns:xlink="http://www.w3.org/1999/xlink">
    <g id="Page-1" stroke="none" stroke-width="1" fill="none" fill-rule="evenodd">
        <g id="Archive-1280x700-Primer" transform="translate(-1136.000000, -1130.000000)" fill="#FFFFFF">
            <g id="Group-10" transform="translate(980.000000, 1129.000000)">
                <path d="M172.165344,1.6722408 L160.117074,1.6722408 C158.023888,1.6722408 156.32107,3.37461832 156.32107,5.46766893 L156.32107,17.517875 C156.32107,19.6109256 158.023888,21.3135814 160.117074,21.3135814 L172.165344,21.3135814 C174.258252,21.3135814 175.96107,19.6109256 175.96107,17.517875 L175.96107,5.46766893 C175.96107,3.37461832 174.258252,1.6722408 172.165344,1.6722408 L172.165344,1.6722408 Z M173.263264,3.9362648 L173.698871,3.93459417 L173.698871,7.26612637 L170.368155,7.27670709 L170.356986,3.94545332 L173.263264,3.9362648 L173.263264,3.9362648 Z M163.353041,9.49483875 C163.983747,8.62067938 165.008295,8.04796392 166.166358,8.04796392 C167.324421,8.04796392 168.348969,8.62067938 168.979395,9.49483875 C169.391673,10.0655986 169.637195,10.7629146 169.637195,11.518899 C169.637195,13.4326068 168.079704,14.9892754 166.166358,14.9892754 C164.253012,14.9892754 162.696358,13.4326068 162.696358,11.518899 C162.696358,10.7629146 162.94216,10.0655986 163.353041,9.49483875 L163.353041,9.49483875 Z M174.007352,17.529411 C174.007352,18.5676778 173.165537,19.4111479 172.12875,19.4111479 L160.102254,19.4111479 C159.065467,19.4111479 158.223374,18.5676778 158.223374,17.529411 L158.223374,9.48764333 L161.150149,9.48764333 C160.896854,10.1107147 160.754932,10.7908338 160.754932,11.50379 C160.754932,14.4649793 163.159564,16.8751721 166.115502,16.8751721 C169.071439,16.8751721 171.475795,14.4649793 171.475795,11.50379 C171.475795,10.7908338 171.333039,10.1107147 171.080855,9.48764333 L174.007352,9.48764333 L174.007352,17.529411 L174.007352,17.529411 Z" id="07-Instagram"></path>
            </g>
        </g>
    </g>
</svg>