
<svg width="14px" height="22px" viewBox="0 0 14 22" version="1.1" xmlns="http://www.w3.org/2000/svg" xmlns:xlink="http://www.w3.org/1999/xlink">
    <g id="Page-1" stroke="none" stroke-width="1" fill="none" fill-rule="evenodd">
        <g id="Archive-1280x700-Primer" transform="translate(-1058.000000, -1129.000000)" fill="#FFFFFF">
            <g id="Group-10" transform="translate(980.000000, 1129.000000)">
                <path d="M85.6037708,0.672240803 L85.6037708,5.88968901 L90.6618584,5.88968901 L90.6618584,9.12946643 L85.6037708,9.12946643 L85.6037708,14.4223603 C85.6037708,15.6201334 85.668409,16.3880417 85.7994976,16.7263775 C85.9293781,17.06793 86.1728283,17.3387156 86.5316608,17.541951 C87.0016467,17.8156609 87.5401974,17.9513461 88.1488231,17.9513461 C89.228643,17.9513461 90.3009116,17.6106709 91.3695557,16.9316599 L91.3695557,20.1889828 C90.4576743,20.6027643 89.6336887,20.8948969 88.8954846,21.0618717 C88.1560723,21.2308934 87.3580628,21.3136496 86.4996437,21.3136496 C85.5240303,21.3136496 84.6622888,21.1940478 83.9141171,20.9571835 C83.1662475,20.7165176 82.5259067,20.3787667 81.9982297,19.9372048 C81.4693446,19.4965202 81.1011487,19.0257159 80.8978707,18.5291781 C80.6933845,18.0332251 80.5915945,17.3126898 80.5915945,16.3684492 L80.5915945,9.12946643 L78.2341137,9.12946643 L78.2341137,6.20901719 C79.0738058,5.94495735 79.7899604,5.5665593 80.3874104,5.07587002 C80.9833501,4.58430347 81.4645118,3.99389724 81.8245524,3.30289679 C82.1858012,2.61511301 82.4352925,1.73666808 82.5712139,0.672240803 L85.6037708,0.672240803" id="12-Tumbler"></path>
            </g>
        </g>
    </g>
</svg>