
<svg width="21px" height="18px" viewBox="0 0 21 18" version="1.1" xmlns="http://www.w3.org/2000/svg" xmlns:xlink="http://www.w3.org/1999/xlink">
    <g id="Page-1" stroke="none" stroke-width="1" fill="none" fill-rule="evenodd">
        <g id="Archive-1280x700-Primer" transform="translate(-1016.000000, -1133.000000)" fill="#FFFFFF">
            <g id="Group-10" transform="translate(980.000000, 1129.000000)">
                <path d="M56.9056229,6.34388919 C56.1469107,6.68275689 55.3298136,6.91199956 54.4738905,7.01486487 C55.3487887,6.48731281 56.0202154,5.65234046 56.335494,4.65719213 C55.5169373,5.14536146 54.6116789,5.49980591 53.6454083,5.69054757 C52.8747272,4.86204103 51.7732954,4.34448161 50.55451,4.34448161 C48.2173612,4.34448161 46.3210186,6.25395553 46.3210186,8.60751366 C46.3210186,8.94226674 46.3572172,9.2667333 46.4301984,9.57826821 C42.9107547,9.40045819 39.7912478,7.7046502 37.7013591,5.1233189 C37.3367452,5.75520576 37.1280191,6.48731281 37.1280191,7.26879521 C37.1280191,8.74652876 37.8756382,10.0520364 39.0121009,10.8173543 C38.318196,10.7958995 37.6645766,10.6022188 37.0929882,10.2848059 L37.0929882,10.3374141 C37.0929882,12.4038311 38.5523195,14.1269719 40.4909912,14.5175662 C40.135427,14.6177863 39.7617634,14.6677495 39.3746713,14.6677495 C39.1020137,14.6677495 38.8357784,14.6421801 38.5785927,14.592217 C39.1169018,16.2853799 40.6804503,17.5188818 42.53388,17.5515048 C41.084474,18.6956609 39.2581934,19.3769231 37.2745653,19.3769231 C36.9327215,19.3769231 36.5949647,19.3581134 36.264214,19.3181429 C38.1383704,20.5266632 40.3645878,21.232907 42.7557427,21.232907 C50.5463361,21.232907 54.8046411,14.737404 54.8046411,9.10273661 C54.8046411,8.91728517 54.8008461,8.73271542 54.7932561,8.55108469 C55.6208625,7.94946962 56.339581,7.19855291 56.9056229,6.34388919" id="01-Twitter"></path>
            </g>
        </g>
    </g>
</svg>