
<svg width="26px" height="16px" viewBox="0 0 26 16" version="1.1" xmlns="http://www.w3.org/2000/svg" xmlns:xlink="http://www.w3.org/1999/xlink">
    <g id="Page-1" stroke="none" stroke-width="1" fill="none" fill-rule="evenodd">
        <g id="Archive-1280x700-Primer" transform="translate(-1174.000000, -1135.000000)" fill="#FFFFFF">
            <g id="Group-10" transform="translate(980.000000, 1129.000000)">
                <path d="M207.054912,21.1029077 L208.554427,21.1029077 C208.554427,21.1029077 209.007326,21.0534313 209.238723,20.8037659 C209.451852,20.5754133 209.445002,20.1453493 209.445002,20.1453493 C209.445002,20.1453493 209.415316,18.1335631 210.349278,17.837466 C211.269539,17.5451747 212.451644,19.7815075 213.704538,20.6416355 C214.65144,21.2924404 215.371512,21.1501006 215.371512,21.1501006 L218.721444,21.1029077 C218.721444,21.1029077 220.47367,20.9948208 219.642466,19.6170937 C219.574722,19.5044397 219.158359,18.59788 217.151901,16.7352842 C215.051057,14.7859144 215.332692,15.101041 217.862839,11.7290347 C219.403457,9.6753839 220.020009,8.42172829 219.827432,7.88433857 C219.643989,7.37282881 218.510599,7.508318 218.510599,7.508318 L214.738976,7.53115326 C214.738976,7.53115326 214.458863,7.4930945 214.251823,7.61716606 C214.049351,7.7389541 213.91919,8.02211129 213.91919,8.02211129 C213.91919,8.02211129 213.321667,9.61144518 212.526239,10.9625312 C210.846325,13.8146548 210.174969,13.9653675 209.900185,13.7880137 C209.261559,13.3754567 209.421405,12.130174 209.421405,11.2456884 C209.421405,8.48186113 209.840813,7.32944182 208.604664,7.03106113 C208.195152,6.93210835 207.892966,6.86664728 206.844066,6.85599083 C205.498308,6.84228967 204.35959,6.86055788 203.714875,7.1764456 C203.285572,7.38652997 202.954461,7.85465274 203.156172,7.88129387 C203.405837,7.91478558 203.969868,8.03352892 204.269771,8.44075767 C204.655687,8.96672976 204.642747,10.1480737 204.642747,10.1480737 C204.642747,10.1480737 204.864249,13.4013367 204.123626,13.8047596 C203.615161,14.0825885 202.917924,13.5162741 201.420692,10.9290395 C200.653428,9.60383343 200.074173,8.1385711 200.074173,8.1385711 C200.074173,8.1385711 199.963042,7.86530919 199.763614,7.71840237 C199.52156,7.54104854 199.18436,7.48472157 199.18436,7.48472157 L195.599985,7.508318 C195.599985,7.508318 195.061835,7.52354151 194.86469,7.75722231 C194.688859,7.96502315 194.850228,8.39584833 194.850228,8.39584833 C194.850228,8.39584833 197.65592,14.9602236 200.833826,18.2682911 C203.746844,21.3023356 207.054912,21.1029077 207.054912,21.1029077" id="Fill-128"></path>
            </g>
        </g>
    </g>
</svg>